<svg xmlns="http://www.w3.org/2000/svg" viewBox="0 0 1356.23 292.41"><title>algo</title><path d="M1254.94,272.68c3.66-10.92,7.32-21.47,10.92-32.23a41.73,41.73,0,0,1,2.52-7.54c3.44-5.47,6.12-13.55,10.93-15.74A12.51,12.51,0,0,1,1298,227.66a29.91,29.91,0,0,0,15.24-25.9,160.66,160.66,0,0,0-22.29-91.95,85.19,85.19,0,0,0-13.49-12.67,32.69,32.69,0,0,1-4.1-7.11c2.19-1.14,4.43-3.22,6.61-3.22,36.22.38,72,2,102.94,25.13,16.88,12.62,34.85,23.88,52.06,36.17a39.64,39.64,0,0,1,7.27,9.67,64.31,64.31,0,0,1-9.94,4.76c-21.86,5.79-30.33,17.53-29.56,40.15.71,21,7.87,40.05,15.62,59.07a42.48,42.48,0,0,1,1.59,9.23,48.09,48.09,0,0,1-9.29.33c-9.12-1.31-18.14-3.34-27.32-4.48s-22.73,8.85-27.32,19.77c-2.67,6.4-4.64,13.06-7.48,19.4-1,2.4-3.72,4.1-5.46,6.06a28,28,0,0,1-5.8-5.9c-5-9.28-9.17-19.17-19.88-23.65-8-3.34-10.6-1.75-9.67,6.88s2.62,18.09,4.15,28.3l67.86,18.41.54,3.23c-9.12,5.84-17.86,11.31-27.15,16.77-10.93,6.67-21.86,13.33-33.17,19.73a31.83,31.83,0,0,1-8,2.13q0-4.22-.33-8.36a6.26,6.26,0,0,1,.38-2c4-15.35,4-15.13-11.53-14.21-27.31,1.64-54.19,2.19-80.64-5.9-24.48-7.43-45.07-20.16-58-43.1-6.34-11.37-16.93-5.9-25.84-6.94-6.94-.82-9.56,3.6-11.36,9.72s-17.65,9.56-22.13,4.86a7.4,7.4,0,0,1-.6-6.06c9.67-27.32,19.56-54.64,29.17-81.95,2.35-6.83,7.38-7.54,13.33-7.54s13.33-1.1,16.07,7.54c6.33,19.83,13,39.55,19.5,59.33a130.32,130.32,0,0,0,5.9,15.68,50.18,50.18,0,0,0,8.2,9c2.73-14.26,5.46-26.06,7.26-37.92,2.46-14.32,4.65-28.68,6.83-43.05,1-6.29,3.72-10.38,10.93-10.66s12.51.55,15,8.14c4.1,12.57,8.31,25,12.73,37.48a103.19,103.19,0,0,0,5.47,10.93Zm-54.64,41.47,1.64,3.06a27,27,0,0,0,4.26,3.66c31.2,18.25,65.57,20.38,100.7,20.44,1.64,0,4.86-3.23,4.7-3.5-4.32-7.92-7.33-19.34-14-22.46a15.78,15.78,0,0,1-10.92-15c-.93-7.86-2-15.73-3.17-23.55-.44-3-1.31-5.95-2-8.9l-2.73-.38a85.17,85.17,0,0,0-4.92,9.78c-3.49,9.28-6.72,18.63-9.89,28A9.77,9.77,0,0,1,1253,313c-5.74-.38-10.22-1.53-12.19-7.87-3.28-10.93-6.94-21.31-10.6-32a48.07,48.07,0,0,0-3.28-6.23h-3.11c-1.48,8.58-3.06,17.1-4.43,25.68-1.63,10.82.93,24.53-19.06,21.58Zm-53.43-62.67-2.95.39a134.71,134.71,0,0,0-6.5,18c-.33,1.37,4.31,5.46,6.28,5.46,3.33-.38,9.23-3.76,9-5.08a114.73,114.73,0,0,0-5.79-18.74Z" transform="translate(-86 -85.55)"/><path d="M241.77,86.21a31.74,31.74,0,0,1,6.88.6c2.3.77,5.47,2.13,6,3.72a7.64,7.64,0,0,1-3.45,6.22c-14.26,7.49-20.59,20.71-24.47,34.7a467.47,467.47,0,0,0-12.3,58c-2.45,16.77,4.65,30.87,17.49,42.12,8.52,7.54,13.06,7.16,16.39-3.77,2.62-9.18,7.92-10.93,16.66-11.53a13.72,13.72,0,0,1,15.68,11.43v.05q12.47,39.16,25.57,78.18c1.81,5.46,0,7.6-5,7.87-8.69.49-18,1.86-19.07-10.93,0-.6-.38-1.69-.71-1.75A205.28,205.28,0,0,0,253.3,298a14.64,14.64,0,0,0-9.51,7.59c-3.72,7.05-15.79,11.86-22.24,7.27a7.71,7.71,0,0,1-1-6.61c1.32-4.75,4.05-9.13,5.14-13.88a13.63,13.63,0,0,0-1.15-9.94c-1.25-1.7-6-1.64-9-1.1-12.67,2.35-17.43,12.95-23.27,22.62a55.45,55.45,0,0,1-7.21,8.09,67.19,67.19,0,0,1-6.4-9.29,202.29,202.29,0,0,0-9.5-21.85c-11.48-17.65-28.47-14.59-45.46-11.31-5,1-10,1.2-15.14,1.75,1.1-4.87,2-9.78,3.23-14.65,4.42-17.53,10.93-34.8,13.06-52.56,3.22-23.93-7-36.27-30.44-41.9A47,47,0,0,1,86,158.27c2-3.16,3.22-7.37,6-9.28,23.11-16,46.22-31.91,69.93-46.94a71.08,71.08,0,0,1,24.81-9.5c18.19-3.17,36.6-4.76,55-7Zm23.38,165.33-3.11.76c-2,5.14-4.26,10.22-5.79,15.52-.61,2.08,0,6.56.82,6.72a31.22,31.22,0,0,0,11.52.38c1.26,0,3.17-3.82,2.79-5.46C269.69,263.23,267.28,257.77,265.15,251.54Z" transform="translate(-86 -85.55)"/><path d="M586.58,239.14c-8.69,5.46-9.13,12.23-8.25,19.94,2.29,21.58-4.27,40-24,50.37-28,14.75-73.05,4.1-74.58-41.41a147,147,0,0,0-.6-17.81c-1.31-8.2-6-9.89-13-5.47-7.87,5.08-14.31,6.89-22.45-1.36a23.92,23.92,0,0,0-33.83.93l-.16.16a32,32,0,0,0-3.11,39.28,26.78,26.78,0,0,0,34.75,6.78,60.4,60.4,0,0,1,8.25-3.5l-3.12-4.75a107.87,107.87,0,0,0-11.91-1.15c-5.95,0-9.39-1.91-9.12-8.63s.6-12.19,9.23-12.08c10.22,0,20.54-.6,30.71.33a11.39,11.39,0,0,1,7.65,7.6,41.9,41.9,0,0,1-35.35,46.16c-27.32,3.66-47.54-6.5-56.33-28.08a55,55,0,0,1,15.9-62,54.61,54.61,0,0,1,59.71-.93c2.9,2,5.47,4.21,10.93,7.92-1-5.46-1.58-9-2.29-12.35A47.07,47.07,0,0,1,477.3,176.8a26.27,26.27,0,0,1,8.2-4.21,47.93,47.93,0,0,1,1.15,7.81,52.46,52.46,0,0,0,14.58,35.79,8.71,8.71,0,0,0,7.65,2.13,68.13,68.13,0,0,1,39.94-.38,9.79,9.79,0,0,0,8.36-2.9c8.36-10.43,14.81-21.85,13.44-36.06a24.38,24.38,0,0,1,1-6.17c2.35.71,5.46.76,6.94,2.24a43.67,43.67,0,0,1,14.15,30.76c.33,9.23,4.37,10.93,12.24,10.93a166.49,166.49,0,0,1,35.13,3.44c14.2,3.49,21.85,17.48,21.14,34.31a33.71,33.71,0,0,1-23.76,32,51.14,51.14,0,0,1-15.63,2.24c-9.34-.6-11.25,4-10.93,12,0,12.18-7.59,17.59-18.68,12.45-2.41-1.09-4.1-6.28-4.15-9.61-.39-18.85,0-37.7,0-56.55A60.55,60.55,0,0,0,586.58,239.14Zm-57.37,53.54a25.73,25.73,0,0,0,26.53-24.91c0-.8,0-1.61,0-2.41a27.32,27.32,0,0,0-26.17-28.08,27.68,27.68,0,0,0-27.32,27.32,26.38,26.38,0,0,0,24.63,28c.8.06,1.61.07,2.41.05Zm81.95-42.23c-.44,9-1.47,16.39,9.67,15.57s16.39-4.54,16.39-13.06-6.94-14.21-17.86-14.53-7.76,7.92-8.36,12Z" transform="translate(-86 -85.55)"/><path d="M975.91,215.37a47.81,47.81,0,0,1,49.63,45.91c0,1.38,0,2.76,0,4.14-.49,28.79-20.54,51-50.81,49.82s-50.32-21.85-51.47-56.93C922.59,238,950.4,215.31,975.91,215.37Zm0,77.42a26,26,0,0,0,26-26.06c0-.57,0-1.13-.06-1.7A26.72,26.72,0,0,0,976,237.4h-.51A28.41,28.41,0,0,0,949,265.2a25.92,25.92,0,0,0,27.15,27.59Z" transform="translate(-86 -85.55)"/><path d="M669.84,266.45c0-12.89.33-25.78,0-38.68,0-8.58,3.11-12.07,11.75-11.31,12.73,1.15,26.06,0,38.24,3.12a33.11,33.11,0,0,1,15.3,54.63,12.85,12.85,0,0,0-2.08,17.49,25.68,25.68,0,0,1,4,7.92c.77,4.59,9.4,8.36,2.46,13.55-5.46,4.1-20.81-.33-23.82-6.12a73.71,73.71,0,0,0-7.1-14,36.68,36.68,0,0,0-10.93-6.45c-1.58,3.17-3.33,6.23-4.59,9.51a15,15,0,0,0,0,4.91c0,11.7-8.52,17.38-19.23,12a10.91,10.91,0,0,1-3.72-8c-.38-12.89,0-25.79,0-38.68Zm23.06-15.62c0,6.5-1.15,13.27,9.07,12.89s18.24-5,18.19-12.51-7.81-12.29-18.36-12.84S693.22,245,692.9,250.83Z" transform="translate(-86 -85.55)"/><path d="M826,313.93a10.11,10.11,0,0,1-12.73-10.27c0-1-.54-2.62-1-2.68A197.48,197.48,0,0,0,785,298a14.59,14.59,0,0,0-9.51,7.54c-3.82,7.16-15.84,11.91-22.18,7.21a7.36,7.36,0,0,1-1.48-6.61c9.62-27.7,19.56-55.29,29.4-82.88,2.89-8.09,9.78-6.23,15.84-6.72s10.93.76,13.17,7.43c6.45,19.78,13,39.44,19.45,59.17q3.12,9.42,6.17,18.85C839,312.79,838.17,313.93,826,313.93Zm-29.61-62.45-3.22.88c-2,5.13-4.21,10.21-5.85,15.51-.6,1.92-.33,6,.28,6.12a33.52,33.52,0,0,0,11.41,1.1,6,6,0,0,0,3.56-4.76C801,263.94,798.56,257.77,796.43,251.48Z" transform="translate(-86 -85.55)"/><path d="M887.07,238.48c-12,0-21.36-.44-30.7,0s-10.66-3.44-10.55-11.25,2.52-11.21,10.93-10.93c17.16.54,34.37,0,51.52,0,10.6,0,13.72,4,10.93,14.2a32.78,32.78,0,0,1-4.81,9.78c-10.32,14.54-20.92,28.91-31.31,43.33-1.31,1.75-2.24,3.77-5,8.47,11.8,0,21.42.33,31,0,8.74-.44,11.52,3.06,11.36,11.64s-3.17,10.54-10.93,10.38h-49.5c-4.48,0-12.45-1.75-12.67-3.5A28.07,28.07,0,0,1,850,293c9.45-14.64,20.38-28.35,30.65-42.56C882.76,247.33,884.12,244.16,887.07,238.48Z" transform="translate(-86 -85.55)"/><path d="M313.89,265.2V226.62c0-9.67,5.46-10,12.89-10.27s10.49,3,10.38,10.49c-.27,18.47,0,36.94-.27,55.4,0,7.22,2.18,10.33,9.61,9.89,6.23-.38,12.57,0,18.8,0,8.74-.38,9,5,9.18,11.59s-2,10.49-9.45,10.38H323.5c-7.48,0-9.78-3.23-9.56-10.22V265.31Z" transform="translate(-86 -85.55)"/><path d="M1033.66,265.63V228c-.27-8.57,3.23-11.63,11.69-11.69s12.08,2.57,11.86,11.37c-.49,17.81,0,35.62-.49,53.43-.27,8.41,2.89,11.42,10.93,10.93,4.58-.28,9.23,0,13.82,0,11.85,0,16.06,5.46,12,16.77a9.61,9.61,0,0,1-7.21,4.81c-14.8.44-29.67,0-44.53,0-5.84,0-8.08-2.9-8-8.69V265.42Z" transform="translate(-86 -85.55)"/><path d="M944.44,216.25c2.37-1.28,4.3-2.13,6-3.29,3.51-2.33,4.48-5.08,2.85-7.49-1.42-2.11-4.54-2.32-7.73-.43-1.68,1-3.27,2.13-5.48,3.6l-13.06-20.18.65-.9c3.94,1.27,7.86,2.58,11.81,3.8,4.28,1.31,7.35.3,8-2.52.58-2.64-1.41-4.85-5.65-5.71q-10.62-2.16-21.29-4c-4.65-.79-6.42.16-8,4.54-2.4,6.8-4.59,13.69-6.7,20.59a19.58,19.58,0,0,0-.48,5.34c0,2,.74,3.59,2.8,4.14a3.59,3.59,0,0,0,4.43-2.21,37.88,37.88,0,0,0,2.57-7.15c.92-4,1.49-8.15,2.22-12.23l1-.12,13.31,22.25c-3,2.23-5.65,4.14-8.2,6.22-1.38,1.13-2.16,2.91-1,4.38a5.67,5.67,0,0,0,3.76,1.67c1.05.08,2.21-.81,3.25-1.39,2.06-1.14,4.08-2.35,6.37-3.69L945,237.33l9.51-7.62Z" transform="translate(-86 -85.55)"/><path d="M1045,203.57c-1-5.49-1.86-11-2.92-16.45-1-5-2.88-6.58-7.85-5.58-8.55,1.74-17,3.88-25.52,5.84-2,.46-3.47,1.58-3.18,3.7.34,2.48,2.31,2.9,4.47,2.59,3.58-.51,7.15-1,10.72-1.59,1.43-.22,2.86-.48,5.1-.85l-28.72,33.52-.25-.1,8.41,5.37c9.05-11.5,18.82-22.73,29.56-34.3.14,3.36.22,5.73.33,8.1a17,17,0,0,0,.25,3.57,5.15,5.15,0,0,0,1.86,3,5.22,5.22,0,0,0,3.37,1.13,5.32,5.32,0,0,0,3.3-1.77,5.26,5.26,0,0,0,1.3-3.51A12.7,12.7,0,0,0,1045,203.57Z" transform="translate(-86 -85.55)"/><path d="M1001.51,334.34a4.29,4.29,0,0,0-2.64-1.19,53.74,53.74,0,0,0-7.61.27c-3.09.21-6.18.5-9.69.78-.32-7.71-.61-14.9-.91-22.2H971v22.43c-1.66.17-2.68.35-3.7.36-3.76,0-7.53,0-11.29,0-3.17.07-4.66,1.23-4.88,3.53-.23,2.46,1.32,4.33,4.32,4.84a40.8,40.8,0,0,0,5.84.46c3.12.07,6.24,0,9.57,0,.12,1.83.23,3.15.3,4.47.28,5.86.47,11.73.86,17.59A18.13,18.13,0,0,0,973.2,371a4.75,4.75,0,0,0,9-.1,12.49,12.49,0,0,0,.93-3.9c.12-2.4,0-4.81-.07-7.22-.22-5.23-.5-10.45-.78-16.17,4,0,7.76.14,11.48-.06a20.17,20.17,0,0,0,6.52-1.3c2.11-.87,3-3,2.53-5.28A4.32,4.32,0,0,0,1001.51,334.34Z" transform="translate(-86 -85.55)"/></svg>