<svg xmlns="http://www.w3.org/2000/svg" viewBox="0 0 19.31 14.32"><title>hamburger</title><path d="M1.28,2.84H16.74a.94.94,0,0,1,.93,1v.72a.94.94,0,0,1-.93,1H1.28a1,1,0,0,1-.94-1V3.81A1,1,0,0,1,1.28,2.84Z" transform="translate(-0.34 -2.84)"/><path d="M1.39,14.5H18.61a1,1,0,0,1,1.05,1v.72a1,1,0,0,1-1.05,1H1.39a1,1,0,0,1-1-1v-.72A1,1,0,0,1,1.39,14.5Z" transform="translate(-0.34 -2.84)"/><path d="M1.23,8.66H12.36a.93.93,0,0,1,.88,1v.71a.93.93,0,0,1-.88,1H1.23a.94.94,0,0,1-.89-1V9.64A.94.94,0,0,1,1.23,8.66Z" transform="translate(-0.34 -2.84)"/></svg>